G04 Layer_Color=8150272*
%FSLAX25Y25*%
%MOIN*%
G70*
G01*
G75*
%ADD16C,0.06800*%
%ADD17R,0.06800X0.06800*%
%ADD18O,0.08800X0.06800*%
%ADD19R,0.08800X0.06800*%
D16*
X290000Y100000D02*
D03*
X280000D02*
D03*
X270000D02*
D03*
X230000Y300000D02*
D03*
X220000D02*
D03*
X210000D02*
D03*
X200000D02*
D03*
X190000D02*
D03*
X180000D02*
D03*
X150000Y150000D02*
D03*
X130000Y190000D02*
D03*
X120158D02*
D03*
X130000Y220000D02*
D03*
X120158D02*
D03*
X130000Y250000D02*
D03*
X120158D02*
D03*
X130000Y280000D02*
D03*
X120158D02*
D03*
X250000Y290000D02*
D03*
Y280000D02*
D03*
Y270000D02*
D03*
Y260000D02*
D03*
Y250000D02*
D03*
Y240000D02*
D03*
Y230000D02*
D03*
Y220000D02*
D03*
Y210000D02*
D03*
Y200000D02*
D03*
Y190000D02*
D03*
Y180000D02*
D03*
Y170000D02*
D03*
Y160000D02*
D03*
Y150000D02*
D03*
Y140000D02*
D03*
Y130000D02*
D03*
Y120000D02*
D03*
Y110000D02*
D03*
X160000D02*
D03*
Y120000D02*
D03*
Y130000D02*
D03*
Y140000D02*
D03*
Y150000D02*
D03*
Y160000D02*
D03*
Y170000D02*
D03*
Y180000D02*
D03*
Y190000D02*
D03*
Y200000D02*
D03*
Y210000D02*
D03*
Y220000D02*
D03*
Y230000D02*
D03*
Y240000D02*
D03*
Y250000D02*
D03*
Y260000D02*
D03*
Y270000D02*
D03*
Y280000D02*
D03*
Y290000D02*
D03*
D17*
X110500Y190000D02*
D03*
Y220000D02*
D03*
Y250000D02*
D03*
Y280000D02*
D03*
D18*
X290000Y130472D02*
D03*
Y140315D02*
D03*
Y150157D02*
D03*
Y190472D02*
D03*
Y200315D02*
D03*
Y210157D02*
D03*
Y250472D02*
D03*
Y260315D02*
D03*
Y270158D02*
D03*
D19*
Y160000D02*
D03*
Y220000D02*
D03*
Y280000D02*
D03*
M02*
