G04 Layer_Physical_Order=1*
G04 Layer_Color=25308*
%FSLAX25Y25*%
%MOIN*%
G70*
G01*
G75*
%ADD10C,0.01000*%
%ADD11C,0.06000*%
%ADD12R,0.06000X0.06000*%
%ADD13O,0.08000X0.06000*%
%ADD14R,0.08000X0.06000*%
D10*
X270000Y100000D02*
Y120000D01*
X250000Y140000D02*
X270000Y120000D01*
X280000Y100000D02*
Y120000D01*
X250000Y150000D02*
X280000Y120000D01*
X290000Y100000D02*
Y120000D01*
X250000Y160000D02*
X290000Y120000D01*
X210000Y160000D02*
Y270000D01*
X190000Y290000D02*
X210000Y270000D01*
X190000Y290000D02*
Y300000D01*
X180000Y180000D02*
Y300000D01*
X160000Y160000D02*
X180000Y180000D01*
X150000Y150000D02*
X160000D01*
X290000Y160000D02*
X300000Y170000D01*
X289843Y150157D02*
X290000D01*
X280000Y160000D02*
X289843Y150157D01*
X280000Y160000D02*
Y200157D01*
X290000Y210157D01*
X289843D02*
X290000D01*
X280000Y220000D02*
X289843Y210157D01*
X280000Y220000D02*
Y260157D01*
X290000Y270158D01*
X289843D02*
X290000D01*
X270000Y290000D02*
X289843Y270158D01*
X250000Y290000D02*
X270000D01*
X300000Y170000D02*
Y210000D01*
X290000Y220000D02*
X300000Y210000D01*
X290000Y220000D02*
X300000Y230000D01*
Y270000D01*
X290000Y280000D02*
X300000Y270000D01*
X270000Y300000D02*
X290000Y280000D01*
X240000Y300000D02*
X270000D01*
X210000Y270000D02*
X240000Y300000D01*
X160000Y110000D02*
X210000Y160000D01*
X120158Y179842D02*
Y190000D01*
Y179842D02*
X140000Y160000D01*
Y110000D02*
X160000D01*
X110500Y139500D02*
X140000Y110000D01*
X110500Y139500D02*
Y190000D01*
Y220000D01*
Y250000D01*
Y280000D01*
X140000Y160000D02*
X160000D01*
X120158Y190000D02*
Y220000D01*
Y250000D01*
Y280000D01*
D11*
X290000Y100000D02*
D03*
X280000D02*
D03*
X270000D02*
D03*
X230000Y300000D02*
D03*
X220000D02*
D03*
X210000D02*
D03*
X200000D02*
D03*
X190000D02*
D03*
X180000D02*
D03*
X150000Y150000D02*
D03*
X130000Y190000D02*
D03*
X120158D02*
D03*
X130000Y220000D02*
D03*
X120158D02*
D03*
X130000Y250000D02*
D03*
X120158D02*
D03*
X130000Y280000D02*
D03*
X120158D02*
D03*
X250000Y290000D02*
D03*
Y280000D02*
D03*
Y270000D02*
D03*
Y260000D02*
D03*
Y250000D02*
D03*
Y240000D02*
D03*
Y230000D02*
D03*
Y220000D02*
D03*
Y210000D02*
D03*
Y200000D02*
D03*
Y190000D02*
D03*
Y180000D02*
D03*
Y170000D02*
D03*
Y160000D02*
D03*
Y150000D02*
D03*
Y140000D02*
D03*
Y130000D02*
D03*
Y120000D02*
D03*
Y110000D02*
D03*
X160000D02*
D03*
Y120000D02*
D03*
Y130000D02*
D03*
Y140000D02*
D03*
Y150000D02*
D03*
Y160000D02*
D03*
Y170000D02*
D03*
Y180000D02*
D03*
Y190000D02*
D03*
Y200000D02*
D03*
Y210000D02*
D03*
Y220000D02*
D03*
Y230000D02*
D03*
Y240000D02*
D03*
Y250000D02*
D03*
Y260000D02*
D03*
Y270000D02*
D03*
Y280000D02*
D03*
Y290000D02*
D03*
D12*
X110500Y190000D02*
D03*
Y220000D02*
D03*
Y250000D02*
D03*
Y280000D02*
D03*
D13*
X290000Y130472D02*
D03*
Y140315D02*
D03*
Y150157D02*
D03*
Y190472D02*
D03*
Y200315D02*
D03*
Y210157D02*
D03*
Y250472D02*
D03*
Y260315D02*
D03*
Y270158D02*
D03*
D14*
Y160000D02*
D03*
Y220000D02*
D03*
Y280000D02*
D03*
M02*
