M48
;Layer_Color=6321
;FILE_FORMAT=2:5
INCH,LZ
;TYPE=PLATED
T1F00S00C0.03543
T2F00S00C0.03900
T3F00S00C0.03937
%
T01
X01105Y019
X0120158
X013
Y022
X0120158
X01105
Y025
X0120158
X013
Y028
X0120158
X01105
T02
X029Y0130472
Y0140315
Y0150157
Y016
Y0190472
Y0200315
Y0210157
Y022
Y0250472
Y0260315
Y0270158
Y028
T03
X015Y015
X016
Y014
Y013
Y012
Y011
X025
Y012
Y013
Y014
Y015
X027Y01
X028
X029
X025Y016
Y017
Y018
Y019
Y02
Y021
Y022
Y023
Y024
Y025
Y026
Y027
Y028
Y029
X023Y03
X022
X021
X02
X019
X018
X016Y029
Y028
Y027
Y026
Y025
Y024
Y023
Y022
Y021
Y02
Y019
Y018
Y017
Y016
M30
